<svg width="601" height="100" viewBox="0 0 601 100" fill="none" xmlns="http://www.w3.org/2000/svg">
<path d="M1.45455 98V28.1818H17.9091V98H1.45455ZM9.72727 18.2727C7.12121 18.2727 4.87879 17.4091 3 15.6818C1.12121 13.9242 0.181818 11.8182 0.181818 9.36363C0.181818 6.87878 1.12121 4.77272 3 3.04545C4.87879 1.28787 7.12121 0.409088 9.72727 0.409088C12.3636 0.409088 14.6061 1.28787 16.4545 3.04545C18.3333 4.77272 19.2727 6.87878 19.2727 9.36363C19.2727 11.8182 18.3333 13.9242 16.4545 15.6818C14.6061 17.4091 12.3636 18.2727 9.72727 18.2727ZM82.3077 30.5C81.8835 26.5303 80.0956 23.4394 76.9441 21.2273C73.8229 19.0151 69.7623 17.9091 64.7623 17.9091C61.2471 17.9091 58.232 18.4394 55.7168 19.5C53.2017 20.5606 51.2774 22 49.9441 23.8182C48.6108 25.6364 47.9289 27.7121 47.8986 30.0455C47.8986 31.9848 48.338 33.6667 49.2168 35.0909C50.1259 36.5152 51.3532 37.7273 52.8986 38.7273C54.4441 39.697 56.1562 40.5151 58.035 41.1818C59.9138 41.8485 61.8077 42.4091 63.7168 42.8636L72.4441 45.0455C75.9592 45.8636 79.338 46.9697 82.5805 48.3636C85.8532 49.7576 88.7774 51.5152 91.3532 53.6364C93.9592 55.7576 96.0198 58.3182 97.535 61.3182C99.0502 64.3182 99.8077 67.8333 99.8077 71.8636C99.8077 77.3182 98.4138 82.1212 95.6259 86.2727C92.838 90.3939 88.8077 93.6212 83.535 95.9545C78.2926 98.2576 71.9441 99.4091 64.4895 99.4091C57.2471 99.4091 50.9592 98.2879 45.6259 96.0455C40.3229 93.803 36.1714 90.5303 33.1714 86.2273C30.2017 81.9242 28.5956 76.6818 28.3532 70.5H44.9441C45.1865 73.7424 46.1865 76.4394 47.9441 78.5909C49.7017 80.7424 51.9895 82.3485 54.8077 83.4091C57.6562 84.4697 60.838 85 64.3532 85C68.0199 85 71.232 84.4545 73.9895 83.3636C76.7774 82.2424 78.9592 80.697 80.535 78.7273C82.1108 76.7273 82.9138 74.3939 82.9441 71.7273C82.9138 69.303 82.2017 67.303 80.8077 65.7273C79.4138 64.1212 77.4592 62.7879 74.9441 61.7273C72.4592 60.6364 69.5502 59.6667 66.2168 58.8182L55.6259 56.0909C47.9592 54.1212 41.8986 51.1364 37.4441 47.1364C33.0198 43.1061 30.8077 37.7576 30.8077 31.0909C30.8077 25.6061 32.2926 20.803 35.2623 16.6818C38.2623 12.5606 42.338 9.36363 47.4895 7.0909C52.6411 4.78787 58.4744 3.63636 64.9895 3.63636C71.5956 3.63636 77.3835 4.78787 82.3532 7.0909C87.3532 9.36363 91.2774 12.5303 94.1259 16.5909C96.9744 20.6212 98.4441 25.2576 98.535 30.5H82.3077ZM141.184 99.3636C134.184 99.3636 128.138 97.9091 123.047 95C117.987 92.0606 114.093 87.9091 111.365 82.5455C108.638 77.1515 107.275 70.803 107.275 63.5C107.275 56.3182 108.638 50.0152 111.365 44.5909C114.123 39.1364 117.972 34.8939 122.911 31.8636C127.85 28.803 133.653 27.2727 140.32 27.2727C144.623 27.2727 148.684 27.9697 152.502 29.3636C156.35 30.7273 159.744 32.8485 162.684 35.7273C165.653 38.6061 167.987 42.2727 169.684 46.7273C171.381 51.1515 172.229 56.4242 172.229 62.5455V67.5909H115.002V56.5H156.456C156.426 53.3485 155.744 50.5455 154.411 48.0909C153.078 45.6061 151.214 43.6515 148.82 42.2273C146.456 40.803 143.699 40.0909 140.547 40.0909C137.184 40.0909 134.229 40.9091 131.684 42.5455C129.138 44.1515 127.153 46.2727 125.729 48.9091C124.335 51.5151 123.623 54.3788 123.593 57.5V67.1818C123.593 71.2424 124.335 74.7273 125.82 77.6364C127.305 80.5152 129.381 82.7273 132.047 84.2727C134.714 85.7879 137.835 86.5455 141.411 86.5455C143.805 86.5455 145.972 86.2121 147.911 85.5455C149.85 84.8485 151.532 83.8333 152.956 82.5C154.381 81.1667 155.456 79.5152 156.184 77.5455L171.547 79.2727C170.578 83.3333 168.729 86.8788 166.002 89.9091C163.305 92.9091 159.85 95.2424 155.638 96.9091C151.426 98.5455 146.608 99.3636 141.184 99.3636ZM198.764 4.90909V98H182.31V4.90909H198.764ZM247.208 28.1818V40.9091H205.935V28.1818H247.208ZM216.254 98V21.5909C216.254 16.8939 217.223 12.9848 219.163 9.86363C221.132 6.74242 223.769 4.40909 227.072 2.86363C230.375 1.31818 234.042 0.545448 238.072 0.545448C240.92 0.545448 243.451 0.772723 245.663 1.22727C247.875 1.68182 249.511 2.09091 250.572 2.45454L247.299 15.1818C246.602 14.9697 245.723 14.7576 244.663 14.5454C243.602 14.303 242.42 14.1818 241.117 14.1818C238.057 14.1818 235.89 14.9242 234.617 16.4091C233.375 17.8636 232.754 19.9545 232.754 22.6818V98H216.254ZM252.891 19.0455V4.90909H327.164V19.0455H298.391V98H281.664V19.0455H252.891ZM357.244 99.3636C350.426 99.3636 344.517 97.8636 339.517 94.8636C334.517 91.8636 330.638 87.6667 327.88 82.2727C325.153 76.8788 323.79 70.5758 323.79 63.3636C323.79 56.1515 325.153 49.8333 327.88 44.4091C330.638 38.9848 334.517 34.7727 339.517 31.7727C344.517 28.7727 350.426 27.2727 357.244 27.2727C364.062 27.2727 369.971 28.7727 374.971 31.7727C379.971 34.7727 383.835 38.9848 386.562 44.4091C389.32 49.8333 390.699 56.1515 390.699 63.3636C390.699 70.5758 389.32 76.8788 386.562 82.2727C383.835 87.6667 379.971 91.8636 374.971 94.8636C369.971 97.8636 364.062 99.3636 357.244 99.3636ZM357.335 86.1818C361.032 86.1818 364.123 85.1667 366.608 83.1364C369.093 81.0758 370.941 78.3182 372.153 74.8636C373.396 71.4091 374.017 67.5606 374.017 63.3182C374.017 59.0455 373.396 55.1818 372.153 51.7273C370.941 48.2424 369.093 45.4697 366.608 43.4091C364.123 41.3485 361.032 40.3182 357.335 40.3182C353.547 40.3182 350.396 41.3485 347.88 43.4091C345.396 45.4697 343.532 48.2424 342.29 51.7273C341.077 55.1818 340.471 59.0455 340.471 63.3182C340.471 67.5606 341.077 71.4091 342.29 74.8636C343.532 78.3182 345.396 81.0758 347.88 83.1364C350.396 85.1667 353.547 86.1818 357.335 86.1818ZM415.825 76.0909L415.779 56.2273H418.415L443.506 28.1818H462.734L431.87 62.5455H428.461L415.825 76.0909ZM400.825 98V4.90909H417.279V98H400.825ZM444.643 98L421.915 66.2273L433.006 54.6364L464.325 98H444.643ZM497.894 99.3636C490.894 99.3636 484.848 97.9091 479.757 95C474.697 92.0606 470.803 87.9091 468.075 82.5455C465.348 77.1515 463.985 70.803 463.985 63.5C463.985 56.3182 465.348 50.0152 468.075 44.5909C470.833 39.1364 474.682 34.8939 479.621 31.8636C484.56 28.803 490.363 27.2727 497.03 27.2727C501.333 27.2727 505.394 27.9697 509.212 29.3636C513.06 30.7273 516.454 32.8485 519.394 35.7273C522.363 38.6061 524.697 42.2727 526.394 46.7273C528.091 51.1515 528.939 56.4242 528.939 62.5455V67.5909H471.712V56.5H513.166C513.136 53.3485 512.454 50.5455 511.121 48.0909C509.788 45.6061 507.924 43.6515 505.53 42.2273C503.166 40.803 500.409 40.0909 497.257 40.0909C493.894 40.0909 490.939 40.9091 488.394 42.5455C485.848 44.1515 483.863 46.2727 482.439 48.9091C481.045 51.5151 480.333 54.3788 480.303 57.5V67.1818C480.303 71.2424 481.045 74.7273 482.53 77.6364C484.015 80.5152 486.091 82.7273 488.757 84.2727C491.424 85.7879 494.545 86.5455 498.121 86.5455C500.515 86.5455 502.682 86.2121 504.621 85.5455C506.56 84.8485 508.242 83.8333 509.666 82.5C511.091 81.1667 512.166 79.5152 512.894 77.5455L528.257 79.2727C527.288 83.3333 525.439 86.8788 522.712 89.9091C520.015 92.9091 516.56 95.2424 512.348 96.9091C508.136 98.5455 503.318 99.3636 497.894 99.3636ZM555.474 57.0909V98H539.02V28.1818H554.747V40.0455H555.565C557.171 36.1364 559.732 33.0303 563.247 30.7273C566.792 28.4242 571.171 27.2727 576.383 27.2727C581.201 27.2727 585.398 28.303 588.974 30.3636C592.58 32.4242 595.368 35.4091 597.338 39.3182C599.338 43.2273 600.323 47.9697 600.292 53.5455V98H583.838V56.0909C583.838 51.4242 582.626 47.7727 580.201 45.1364C577.807 42.5 574.489 41.1818 570.247 41.1818C567.368 41.1818 564.807 41.8182 562.565 43.0909C560.353 44.3333 558.61 46.1364 557.338 48.5C556.095 50.8636 555.474 53.7273 555.474 57.0909Z" fill="#D500F9"/>
</svg>
