<svg width="1080" height="1152" viewBox="0 0 1080 1152" fill="none" xmlns="http://www.w3.org/2000/svg">
<path fill-rule="evenodd" clip-rule="evenodd" d="M259.541 128.271C283.443 126.257 294.743 132.635 308.644 147.627C426.75 274.278 472.053 443.334 479.353 595.271C480.753 623.353 480.353 657.813 475.153 685.001C498.854 704.804 541.557 742.62 545.057 770.032C551.657 825.302 546.557 881.915 548.757 937.52C552.657 1033.96 465.453 955.869 426.15 927.003L417.85 946.919C413.95 949.716 408.449 953.184 404.249 955.869C394.749 956.317 383.948 956.429 374.348 956.652C370.447 1004.76 337.046 1114.74 294.043 1152C289.343 1151.89 280.842 1152 277.042 1150.32C254.841 1140.03 243.24 1098.3 236.24 1080.06L215.239 1075.58C187.737 1048.06 172.637 992.902 172.036 958.89C140.835 957.436 139.635 948.149 125.734 929.017C97.0324 946.807 66.1307 975.784 32.5288 985.406C7.92747 988.763 0.52706 964.708 0.427054 953.408C0.127038 899.704 -0.573001 846.336 0.927082 792.744C1.92714 753.361 33.0288 715.209 68.2308 686.791C55.1301 514.715 95.6323 328.542 210.939 177.164C223.539 160.717 239.44 140.019 259.541 128.271ZM230.64 336.485C206.238 337.269 181.737 339.394 156.836 340.177C137.435 392.874 119.434 447.473 110.233 501.736C87.8319 633.87 100.433 795.093 163.836 920.179C195.238 919.06 227.039 918.836 258.041 917.717L258.141 811.876C257.741 793.639 254.341 763.095 268.442 748.55C277.742 745.194 287.943 751.012 288.443 755.263C294.143 808.631 290.443 864.237 290.943 918.165C320.045 919.06 361.047 919.955 389.848 918.836C401.749 890.53 409.85 858.307 417.45 829.218C454.652 686.903 458.652 538.322 410.75 397.126C406.949 385.714 391.649 338.611 385.048 333.129H378.748C329.745 335.478 279.742 335.143 230.64 336.485ZM270.342 419.502C403.949 408.762 435.551 649.758 283.043 674.372C212.739 678.847 176.937 626.15 165.536 582.068C152.435 531.162 165.936 469.738 220.939 434.495C236.84 424.313 250.641 422.076 270.342 419.502ZM286.243 637.227C373.147 606.571 374.248 496.59 293.843 457.99C282.643 457.319 274.942 456.76 263.541 457.095C161.936 484.842 174.537 639.241 286.243 637.227ZM175.137 301.13C207.938 298.445 242.34 298.781 275.442 298.781C304.744 297.662 340.846 295.648 369.847 295.872C357.447 273.495 301.444 172.465 271.542 167.878C235.64 191.485 189.637 265.999 175.137 301.13ZM200.538 959.338C209.839 988.427 211.639 1011.7 230.54 1038.22C235.74 1032.4 237.94 1028.48 245.841 1025.46C272.842 1027.25 266.342 1092.48 287.343 1107.47C318.544 1056.23 331.245 1010.36 343.946 955.757C311.644 954.303 274.342 951.841 242.34 953.632C225.639 955.086 217.039 956.317 200.538 959.338ZM434.651 893.103C453.252 903.844 477.353 920.626 494.554 933.157L515.655 948.261L515.855 849.245C515.955 828.77 517.155 804.715 513.155 784.688C510.455 771.486 485.654 737.138 471.753 728.299C461.552 785.919 451.952 835.819 434.651 893.103ZM33.2289 849.804L33.7289 947.478C41.6293 942.443 49.7298 937.297 57.4302 932.038C77.4313 918.165 92.3321 906.976 114.933 895.452C92.2321 830.56 83.2316 797.555 72.331 729.866C28.2286 772.717 32.9288 798.897 33.2289 849.804ZM902.476 391.867C967.38 387.056 1067.69 410.664 1075.89 463.696C1082.59 506.659 1079.09 568.866 1079.09 613.06L1078.99 737.586C1078.99 771.374 1081.19 808.855 1072.09 842.308C1060.59 884.488 991.481 896.795 943.179 903.956C926.278 906.417 920.477 892.432 921.578 882.25C923.378 865.468 944.779 865.804 961.98 863.678C984.581 861.44 1006.38 857.3 1023.58 845.553C1046.68 829.218 1045.58 810.533 1046.18 787.933C935.178 850.699 893.376 793.415 937.878 780.325C978.081 779.654 1015.08 766.116 1044.28 746.089C1044.38 730.425 1044.88 714.985 1045.48 699.322C1020.68 712.636 896.376 755.823 891.976 705.028C890.776 690.483 911.477 690.819 927.478 691.042C977.881 691.49 1006.88 678.623 1045.68 656.247C1045.08 641.814 1045.18 627.269 1045.08 612.836C978.581 649.198 879.375 654.568 806.071 623.913C781.27 613.619 755.968 587.662 750.968 567.412C747.668 554.321 750.068 537.763 749.668 524.225C742.168 430.019 778.57 405.181 902.476 391.867ZM815.272 500.506C849.574 516.953 898.876 516.729 938.678 515.722C980.081 512.701 1009.48 504.198 1043.78 486.744C1042.78 472.199 1040.58 462.913 1024.88 453.067C991.681 432.369 936.378 428.229 895.176 431.138C856.874 435.502 730.067 459.668 815.272 500.506ZM783.17 561.706C837.273 622.57 976.081 619.325 1042.28 571.216C1047.88 564.95 1045.48 534.518 1045.38 525.008C1020.28 537.651 998.282 547.497 967.78 550.741C903.377 557.566 835.073 556.447 782.67 524.784L783.17 561.706ZM935.378 0.500939C969.58 -3.1912 974.78 14.0388 974.48 35.2965C973.88 84.8607 978.081 135.879 974.78 185.22C972.08 225.274 957.579 230.98 917.077 205.918C857.174 319.032 768.069 434.83 627.161 501.625C611.061 509.233 594.96 513.596 576.259 510.351C544.057 492.003 547.257 449.823 557.958 423.754C583.559 406.412 620.461 393.769 649.363 375.756C741.468 318.36 794.771 241.832 840.873 161.165C805.471 150.312 787.27 125.362 814.572 105.783C846.273 83.1824 904.177 17.8428 935.378 0.500939ZM846.473 123.572C859.274 130.845 871.875 136.551 873.875 149.417C881.075 194.842 776.57 319.927 737.867 354.498C720.167 370.386 701.265 386.161 679.964 399.587C665.964 408.426 590.159 446.354 586.159 451.053C583.159 454.522 583.859 460.34 584.359 464.144C584.859 468.283 586.159 471.64 588.559 475.444C617.661 469.626 653.863 449.599 676.364 434.271C761.169 376.428 823.772 300.683 869.075 222.477C881.175 201.778 889.376 182.534 903.076 162.843C912.777 161.724 934.578 179.178 940.879 184.66V92.4687C940.879 80.4972 941.779 52.6384 940.079 41.8976C906.277 73.8961 883.575 93.9232 846.473 123.572ZM681.264 608.025C692.665 606.011 713.066 607.578 724.367 609.592C958.18 649.981 971.08 983.392 784.97 1067.64C706.566 1103.22 606.36 1078.6 560.358 1021.32C551.157 1009.91 553.257 996.483 569.658 990.441C591.659 992.119 591.659 1008.9 612.061 1019.75C631.162 1029.82 648.263 1036.87 669.664 1043.81C696.165 1048.62 729.767 1047.28 754.468 1038.77C889.976 992.455 901.976 827.763 852.774 738.145C831.573 699.657 798.071 668.778 748.568 653.226C669.764 628.388 590.659 666.764 563.858 722.481C560.158 729.978 556.658 737.474 546.357 740.718L541.457 738.928C519.155 716.775 544.157 682.427 563.158 663.072C592.159 633.423 632.262 613.508 681.264 608.025ZM698.865 675.714C727.067 676.162 719.366 710.846 718.866 725.838C726.267 728.411 736.167 731.656 742.568 735.124C766.869 748.438 785.57 782.451 765.669 802.366C757.969 805.275 761.769 805.051 753.968 803.82C740.568 794.087 741.168 766.116 724.367 761.752L719.966 763.319C717.366 775.514 718.666 820.379 718.766 835.148C738.167 843.091 755.468 850.811 765.669 865.356C791.37 902.054 782.97 963.142 723.767 979.029C705.666 983.952 736.267 1016.73 700.465 1027.36C680.564 1012.59 686.565 997.266 688.565 977.798C654.263 966.386 639.762 954.415 629.561 926.78C625.761 916.375 624.161 895.452 642.962 892.879C663.363 900.711 651.563 922.976 685.865 941.772L688.465 943.115L688.565 864.461L681.764 861.552C627.161 837.273 609.26 789.164 641.262 745.641C651.863 731.208 667.664 726.509 688.365 723.6C687.965 704.245 684.265 691.378 698.865 675.714ZM717.066 945.688C722.967 942.667 729.167 939.646 734.267 935.954C752.568 913.689 754.368 886.278 719.866 872.516C717.066 897.019 717.166 921.186 717.066 945.688ZM660.063 801.918C665.363 808.519 669.064 813.554 675.564 819.708L685.365 825.302L687.665 825.078C689.365 809.526 689.265 777.08 687.865 761.529C684.865 759.291 686.465 759.738 683.364 759.403C658.463 772.269 659.163 779.877 660.063 801.918Z" fill="#D500F9"/>
</svg>
