<svg width="1080" height="1017" viewBox="0 0 1080 1017" fill="none" xmlns="http://www.w3.org/2000/svg">
<path fill-rule="evenodd" clip-rule="evenodd" d="M400.7 79.2C451.8 73.8 539 78.7 585.6 95.3C631.2 111.6 759.1 158 722.7 202.6C700.1 211.9 671.2 188.9 653.6 178.5C535.5 106.6 352.9 111.7 242.3 188.3C48.9001 322.6 7.70006 548 85.4001 720.3C242 1067.5 720.7 1032.3 841.5 695.2C863.1 634.9 868.4 595.8 868.4 533.4C868.1 501.5 865.2 474.5 856.3 442.5C855.2 433.8 835.7 388.1 840.4 382.9C872 347.8 892.9 387.4 897.5 402.9C944.7 560.5 915 736.1 789.1 874.9C739.5 929.5 668.8 973 581.5 1000C486.8 1029.3 369.7 1017.3 283.8 980C140 917.5 58.8001 806.3 24.1001 697.2C-27.4999 534.8 0.900055 351.5 137.2 210.3C198.9 146.4 286.7 94.8 400.7 79.2ZM920 0C960.5 3 971.3 65.1 987.7 89.9L989.5 92.6C1003.6 97.4 1019.7 102.2 1033.9 106.8C1117.8 133.3 1069.5 191.9 1028 226.9C980.2 267.2 968.8 296.1 886 275.9C835.5 328.1 802.2 350.7 729.5 389.6C685 413.5 629.1 450.8 594.2 480.1C610.3 525.6 605.1 578.2 576.1 622.6C514.3 718.7 366.1 698.1 329.2 603.2C300.2 528.6 314.9 420.2 448.8 397.6C491.9 403 563.8 421.3 510.6 454.9C481.8 459.2 461.1 432.1 414.3 459.2C350 496.5 352.3 574.1 400.9 616.9C425.6 638.7 477 648.2 504.3 624.9C550.3 590.3 553 553.3 552.1 509.8C535 523.3 492.4 560.9 470.5 565.6C450 564.1 444.5 557.5 441.6 544.3C440.6 540 443.9 527.9 448.5 524.8C568.2 444.2 659.1 347.6 761.4 257.5C775.6 244.9 788.7 232.8 804.5 220.9C798.1 189.4 787.8 159.3 781.7 126.1C796.3 100.6 888.6 16.2 920 0ZM834.5 136.5C841.9 167.1 847.5 193 857.7 223.3C890.7 229.4 910 233.5 943.8 235.4C970 215.4 1007.7 179.6 1030.2 157.1C1008.3 148.8 989 144.2 967.9 136C934.9 123.2 930.3 72 917.9 62.7C888.6 87.1 862.1 111.3 834.5 136.5ZM762.2 318.6L764 321.3C778.5 310.7 829.4 275.9 833.7 264.6L830.3 262.1C807.6 277.6 781 300.6 762.2 318.6ZM436.6 243.8C485.9 239.4 550.4 254.5 590 274.1C610.8 284.4 648.4 306.5 622.6 324.3C602.3 338.3 585.7 326.3 565.3 318.8C478.6 276.2 375.2 291.5 308.2 345.1C221.8 414.3 210 495.5 215.6 582C221.4 671.3 312.7 801.9 474 791.1C680.4 777.2 720.4 588.3 700.8 477.2C697.8 460.9 695.8 440.9 723.5 433.2L731.1 435.8C739.2 443.1 744.8 452.6 747.1 461.9C779 590.5 729.6 803 503.3 839.3C448 847.8 381.9 836.5 336 815.6C99.3001 708 107.3 385.6 329.5 272.5C362.8 255.6 396.7 248.8 436.6 243.8Z" fill="#D500F9"/>
</svg>
