<svg width="779" height="1080" viewBox="0 0 779 1080" fill="none" xmlns="http://www.w3.org/2000/svg">
<path fill-rule="evenodd" clip-rule="evenodd" d="M454 520.5C525.8 514.3 497.6 551 533.7 580.8L536.1 582.7C545.8 573.6 566.6 551.4 582.5 550.6C634.5 548.2 708 596.7 703.5 631.3C701.4 647.1 687.2 665.8 692.5 679.9C744.7 688.7 762 696.4 768.8 734.3C774.3 764.5 789.5 803 764.6 831.1C755.4 841.5 739.5 846.1 728.9 856.5C722.7 876.4 750.6 889.7 752.9 905.7C757.3 935.8 704.9 1006.5 659.6 1016.9C649.1 1019.3 629.7 1008.6 619.9 1003.7C621.3 1045.7 608.6 1080.1 533.5 1067.4C517 1061 510.3 1055.5 498.9 1045.4C487.4 1061.3 467.7 1087.3 435.6 1078C404 1068.7 358.4 1045.3 344.1 1024C330.8 1004 343.3 976.7 354.9 957.6C335.2 962.3 298.2 974.3 282.2 962C245.9 934 239.5 883.1 233.8 847.5C230.3 825.9 250.5 818.3 269.9 804.7C300 781.6 240.4 777 239.9 738.3C239.3 701.7 269.6 646.7 305.7 620.6C325.6 624.4 343.6 633.7 357.6 632.8C386.8 611 298.5 564.2 454 520.5ZM403.7 585.1C405.3 621.8 414.6 706.2 319.1 669.3C301.6 688.7 276.7 720.3 291.7 743.4C295.6 749.3 309.6 759.1 316.5 764.2C327.6 808.4 322.5 819.5 276.8 852.3C281.7 870.4 288.4 911.2 308.5 922.1C317.9 923.8 324.5 922.1 333.7 920.3C364.4 914.4 383.3 941.8 394.8 956.9C383.8 1007.6 365.5 1011.8 451.5 1037.5C468.9 1000.6 491.6 975.9 537.3 1021.6C545.5 1029.3 540.3 1027.1 551.9 1029.8C558.7 1028.9 565.6 1028.1 572.5 1027.1C581.9 1007.2 587.7 972.3 610.2 960.9C635.4 958.9 645 982 672.2 960.4C685.5 949.9 699.3 927.5 706.8 914.2C666 874.5 662 823.9 738.8 804.2C733.9 780.6 727.8 746.7 717.7 724.9C608.7 735.2 658.4 655.6 655.4 623.8C655 618.7 601.4 595.3 589.5 589.8C580.5 601.5 574.4 608.9 559.8 618.4C452.1 625.9 498.7 570 466.6 563.3C442.1 570.2 425.6 574.9 403.7 585.1ZM485.5 670.3C643.1 656.5 665.9 845.1 588.8 903.6C561.2 924.5 555.7 927.8 518.2 937.6C439.3 943.8 388.1 888.3 376.1 843.6C358.1 776.9 378.5 694.9 485.5 670.3ZM415.2 811.8C418.6 850.9 445.7 893.9 514.5 892.8C617.9 865.7 614.8 710.7 487.2 713.8C425.8 733 411.5 769.1 415.2 811.8ZM310.7 180C523.7 172.5 553.9 472.4 339.6 516.9C112.4 520.3 105.1 206.3 310.7 180ZM333.2 472.6C380.9 458.7 404.7 443.5 424.7 410.7C461.4 350.3 445.9 226.4 317.2 225C154.9 249.9 183.7 476.5 333.2 472.6ZM279.7 0.499965C477.4 -6.30003 376.3 59 425 93.3C451.3 93 464 22.2 528 83.2C552.3 106.4 582.2 134.1 595.9 161.2C598.3 165.9 596.3 195.3 596.1 202.1C585.4 213.2 567.9 228.2 568 240.9C575.9 252.6 603.8 257.4 621.7 263.3C654.9 298.3 644.3 365.5 641 406.2C639.1 438 598.5 437.1 577.7 446.6C541.2 463.4 634.3 504 581.1 527.7C554 528.5 531.4 487.8 526.7 473.5C519.1 450.1 533.6 397 583.8 401.5C588 401.9 597.4 396.5 597.5 393.5C598.4 369.9 605.7 322.2 595.3 300.9C580.4 292.7 564.2 298.2 554.3 293.4C494.4 264 528.4 209.6 554.6 179C537.6 152.1 509.7 127.8 483.4 104.5C469.3 121 454.2 140.7 416.8 135.9C351.8 127.4 381.2 66.9 366.2 52C345.6 44.4 296.5 47.8 271.9 48.6C268.7 81.1 281.7 144.8 198.4 135.1C181.1 133 169.5 116.3 161.5 106.9C156.9 110.5 149.7 117.4 145.2 121.5C123.4 140.9 105.1 155.7 89.7 177.7C102.6 199.2 120.6 214.9 120.9 239.5C121.4 279.9 105 295.7 45.6 296.6C44.4 331.8 44.9 366.2 45.4 401.3C58.7 401.8 74.2 401.7 87.7 401.9C149 436.6 119.1 481.7 96.3 521.4C119.5 546 135.4 560.7 164.1 582.6C207.7 554.9 243.2 547.3 268.3 596.5C276.1 611.8 281.1 644.1 249.3 649.4C231 644.2 237.7 621.6 223.5 607.5C196 599.9 176.1 648.6 134.8 615.9C103.8 591.1 29.4 529.9 58 495.9C111 432.9 68 458.5 21.1 434.3C-7.9 419.4 1.19999 332.1 1.89999 307.2C2.39999 286.8 11.6 268.5 39.1 252.7C50.4 252.7 58.7 253.3 69.4 250.8C96.8 231.8 29.1 200.2 46.9 163.6C59.7 137.2 118.6 80.8 151.8 64.6C182.3 49.7 192.7 89.3 217.1 93.7C244 77.6 192.3 29.6 279.7 0.499965Z" fill="#D500F9"/>
</svg>
