<svg width="730" height="984" viewBox="0 0 730 984" fill="none" xmlns="http://www.w3.org/2000/svg">
<path fill-rule="evenodd" clip-rule="evenodd" d="M693.342 0.0134227C715.628 -0.442134 730.619 10.7646 729.12 23.5202C718.526 119.096 684.947 224.147 578.112 298.13C534.339 328.379 460.484 354.255 393.525 355.712L389.327 355.803C381.232 371.657 382.332 491.104 381.932 512.971C402.919 479.259 421.608 452.564 476.874 433.157C491.165 426.415 556.725 416.666 571.816 421.768C618.587 437.713 564.12 519.439 550.029 534.473C507.655 580.12 467.679 600.346 388.728 614.469C388.328 641.255 390.427 669.591 391.226 696.651C489.466 696.469 591.704 707.949 665.658 750.133C703.535 771.727 697.139 847.349 695.34 877.143C687.045 1016.73 91.4093 1017.82 51.4337 890.627C46.3368 874.136 47.4362 808.809 49.8347 788.491C52.0334 777.285 55.7311 765.076 67.2241 756.147C128.786 708.313 265.403 696.651 354.249 696.833C351.55 682.711 351.35 664.671 350.551 650.184C301.881 647.269 273.398 643.806 237.22 621.029C193.147 593.331 160.267 549.78 160.667 510.875L162.866 508.962C185.352 488.917 226.227 496.115 257.908 504.133C306.478 516.433 331.363 550.417 348.352 578.753C349.951 564.995 347.653 541.944 347.153 527.639L345.154 435.708C114.495 431.973 24.2503 272.801 0.664736 156.543C-3.13294 117.274 17.2546 111.169 72.9206 121.829C239.519 153.809 315.472 231.983 355.148 332.479C367.041 220.139 401.52 89.9404 579.211 28.4402C617.788 15.1379 651.567 8.39567 693.342 0.0134227ZM141.679 758.88C47.9359 788.765 90.7097 816.736 166.463 834.138C306.578 866.118 472.277 862.474 605.695 820.563C626.882 813.82 660.162 805.803 654.465 788.856C605.295 741.933 474.575 732.093 390.926 730.18L394.024 794.96C412.513 792.409 445.193 784.665 463.182 788.674C467.879 789.676 472.576 793.594 473.176 796.6C479.072 847.532 216.833 833.318 286.69 786.396C307.177 780.382 327.965 795.598 349.851 792.683C357.547 787.671 357.247 735.647 352.35 731C344.455 729.633 341.357 730.18 333.361 730.818C268.601 733.096 199.243 740.567 141.679 758.88ZM456.686 153.445C422.207 195.447 398.322 272.983 393.325 320.726L395.523 323.55L397.422 323.732C411.614 320.726 426.105 317.446 440.596 314.803C607.594 284.737 659.862 163.012 682.748 70.7159C684.747 62.6981 690.443 45.1136 687.145 38.3713L683.747 38.0069C571.916 61.2403 511.952 86.0226 456.686 153.445ZM215.434 376.121C258.107 394.89 295.884 398.261 345.454 404.092C340.357 383.592 330.263 363.457 321.569 343.777C293.686 281.274 253.11 223.419 163.465 184.878C124.789 168.296 84.6134 158.456 38.0419 151.167C61.4276 234.261 94.8072 323.277 215.434 376.121ZM86.4124 841.154C87.012 860.652 84.1138 881.061 101.803 897.461C162.966 933.905 276.896 950.943 361.144 949.303C442.095 947.754 574.414 937.185 635.677 902.836C663.16 887.438 656.364 866.392 656.464 846.256C656.464 841.427 657.164 842.885 652.766 839.969C503.058 899.738 227.226 914.316 86.4124 841.154ZM434.7 500.762C419.309 517.891 389.027 559.528 390.726 577.751L393.525 579.391L401.82 577.66C463.382 563.082 500.459 539.666 527.743 502.948C534.239 494.202 550.429 466.686 549.529 457.666C543.933 455.661 538.436 456.664 530.541 456.755C485.468 464.408 457.885 475.068 434.7 500.762ZM252.111 589.049C277.196 604.264 296.284 609.731 328.964 616.017C305.179 573.195 287.29 537.115 202.042 528.915C201.342 544.313 233.123 577.569 252.111 589.049Z" fill="#D500F9"/>
</svg>
