<svg width="1028" height="1080" viewBox="0 0 1028 1080" fill="none" xmlns="http://www.w3.org/2000/svg">
<path fill-rule="evenodd" clip-rule="evenodd" d="M825.8 306.5C860.8 304.7 898.7 306.9 933.7 305.7C984.5 304 1022.7 309.1 1025.5 349.8C1029 399.6 1025.9 450.3 1025.8 500.4L1025.5 803.3L1026.8 948.2C1027.2 968.8 1028 989.4 1027.7 1009.9C1027.3 1037.8 1026.6 1057.9 991.4 1075.9C946.9 1081.1 894.3 1078.1 848.9 1078.5C810.9 1078.8 791.3 1054.3 790.3 1031.7C788.3 986.6 789.9 941.3 790 896.1L789.8 625.7L789.3 441.3C789.1 409.9 787.4 374.6 791.1 343.5C793.1 327.2 807.2 316.2 825.8 306.5ZM832.8 557.3V857.6C833 895.6 827 1002 839.4 1033.2C854.4 1039.5 954.5 1039.2 973 1034.8C978.4 1028.3 980.9 1023.9 981.2 1016.4C983.4 966.2 983.2 914.9 983.4 864.7L983.3 571.2L982.8 421.7C982.7 410.9 984.3 360.1 978 352.9C955.1 346.3 867.8 349.3 837.4 349.6C828.2 369.1 832.9 528.2 832.8 557.3ZM619 464.4C674.9 463.7 751.1 453.7 754.5 505.8C756.7 538.1 755.3 571.1 755.1 603.4L754.8 797.8L755.3 963.2C755.4 987.9 757 1018.9 753.5 1043.3C751.3 1058.8 732.3 1069.5 714.4 1077.9C696.9 1078.8 671.1 1078.5 652.9 1078.6C587.3 1078.8 526.3 1088.1 524 1029.1C522.7 995.2 523.6 961.3 523.9 927.3L524.8 745.5L522.9 581.2C522.7 555.9 520.9 526.3 525.4 501.7C528.4 485 541.7 475.3 561.2 465.7C580.2 464.3 599.8 464.5 619 464.4ZM565.6 691.6L565.8 913.2C566 947.6 564.3 996.2 568 1029.5C587.7 1042.1 672.4 1037.9 702.7 1036.9C706.9 1031.4 710.6 1025.9 710.8 1019.6C712.4 963.5 711.7 906 711.7 849.9L711.5 508.4L570.5 508.2C563.6 522.6 565.7 666.4 565.6 691.6ZM302.4 599.4C334.4 598.7 426.8 597.7 456.2 601.3C479.5 612.7 488.6 625 488.5 644.5C488.1 776.1 489.5 907.7 488.6 1039.3C488.5 1055.9 470.9 1071.7 447 1076.9C410.6 1080.2 330.6 1078.8 291.3 1078.3C247 1046.8 258.5 1020 258.6 979.3V868.7L258.2 720C258.1 691.3 250.6 639 270.8 613.1C277.1 605.1 289 601 302.4 599.4ZM302.7 888.7C302.7 919.5 297.3 1002.2 310 1033.1C313.1 1040.4 421.7 1038.4 438.8 1034.6C445.6 1025.3 446 1017.8 445.6 1007.7C441.7 888.3 453.7 763.7 444.3 644.8L302.8 644.9L302.7 888.7ZM874.5 0.1L906.9 0C926.3 8.9 938.6 18.8 936.4 40.6C932.3 82 943.2 173.6 907.5 206.9C887.4 225.7 854.3 183.2 844.2 169.8C706.8 330.8 412.1 513.9 139.1 576.2C112.6 578.6 103.1 547.5 119.4 538.4C124.8 535.4 147.3 528.8 154.5 526.8C414.8 456.3 632.8 320.6 790.2 167.5C805.7 152.4 819.4 120.6 850 121.6C859.9 125.1 864.1 130.2 870.8 136.3L889.7 156.7C889.1 120.8 893.9 80.6 894.5 43.8C854.9 44 815.7 45 775.9 45.1C798.8 59.7 819.9 74.5 808.2 96.8C791.4 128.1 762.9 154.4 732.9 181.3C584.6 313.9 385 425.4 160.1 495.8C118 509 97.6999 487.7 114.4 463.1C128.1 451.5 174.8 444.1 191 438.3C266.4 411.3 362.3 373.1 427.4 337.3C533.4 278.9 711.2 167 762.8 82.2C629.9 -0.600006 789.3 4.1 874.5 0.1ZM35.0999 748.3C75.3999 745.4 120.7 748.1 161 747C224.8 744.8 225.4 789.4 224.6 820.8C222.8 892.8 227.6 966 224.3 1037.9C223.6 1053.1 208.9 1066.9 191.1 1076L180.8 1076.8C141 1080.2 99.8 1078.2 59.9 1078.7C29.6 1079 2.69995 1059.3 1.99995 1040.3C-1.10005 956.3 -4.8399e-05 871.5 1.39995 787.4C1.69995 770.5 16.3999 758.2 35.0999 748.3ZM46.5 796C40 814.7 42.1999 1013.7 49.5999 1032.1C60.9999 1040.8 139.2 1037.5 160.6 1037.3C167.7 1036 172.4 1035 176.8 1030.7C187.4 1020.1 184.2 816.5 175.8 794.9C166.3 788.7 125.4 790.7 110.5 790.8L66.6 791.2C51.2 792 54 790.2 46.5 796Z" fill="#D500F9"/>
</svg>
