<svg width="951" height="1080" viewBox="0 0 951 1080" fill="none" xmlns="http://www.w3.org/2000/svg">
<path fill-rule="evenodd" clip-rule="evenodd" d="M861 722.1C868.6 721.8 876.7 721.3 884.2 722.3C903.3 724.7 919.5 733.8 929.9 744.4C949.3 764 954.5 790.3 946.5 813C925.3 872.9 709.9 1024 626.8 1058.9C511.3 1107.3 415.9 1060.2 303 1039.5C267.1 1033 230.1 1035 194.2 1029.5C174.1 1065.7 164.5 1066.5 104 1066.4C66.8999 1066.2 39.5999 1069.6 16.3999 1047.9C-4.70011 1022.5 1.89989 940.4 2.39989 908.9C3.09989 864.4 -4.90011 814.5 10.7999 771.5C22.4999 739.5 59.5999 744 99.2999 743.7C147.9 745.3 168.2 736.8 188.7 769.9C330.8 690.3 385.5 741.7 528.4 772.8C568.5 781.5 625.2 775 665.4 785.1C680.9 789 690.2 808.6 695.1 817.7C737.4 792.3 815.9 734.6 861 722.1ZM695.1 864.8C686.3 889.1 677.5 920.8 630.2 923.1C568.2 926 494.9 928.9 432.7 924.3C406.2 922.3 400.2 886.5 431.6 883.5C468.4 879.4 507 886.5 544.8 884.6C618 881 667.5 892.9 652.6 829.9C642.1 820.4 538.2 817.8 507.3 812.3C406.6 794.4 373.4 753.5 264.7 784.4C236.8 792.2 218.5 799.2 195 812.2L194.9 987.8C236 988.9 275 991 314.9 998.5C356.8 1006.3 396.7 1018.7 438.1 1027.6C538.1 1049.2 601.2 1030.8 675.3 985.3C727.1 953.5 904.8 832.6 906.3 788.8C906.6 782.4 903.9 776.6 897.1 772C890 767.2 883.5 765.8 873.6 764.8C831.9 776.1 741.9 839.6 695.1 864.8ZM46.2999 821.1C52.4999 849.8 35.6999 1005.3 57.6999 1021.7C77.5999 1026.9 116.3 1026.3 137.8 1025.4C143.5 1023 152.5 1020.3 152.3 1016.1C149.8 967.5 160.1 832.1 147.6 792.1C136.6 784.6 75.6999 788 58.6999 788.4C47.8999 795.5 44.3999 812.1 46.2999 821.1ZM508.8 -3.48836e-05C781.7 -5.80004 836.4 327.9 654.5 434.5C670.7 434 721.4 430.8 732.1 438.1C763.1 459.5 733.1 510.2 720.5 532.5C702.6 564.4 683.7 594.8 648.6 619C623.4 636.3 588.7 635.3 556.2 635.2C513.8 635.1 434.9 636.2 401.5 615.9C351.6 585.8 312.3 518.2 303.7 474C301.5 462.5 305.9 448.1 317.8 439.3C328 431.7 368.7 434.4 385.8 434.8C250 338 260.3 123.2 406.1 32.7C438 12.9 467.3 5.59997 508.8 -3.48836e-05ZM547.6 435.9C803.1 383.3 758 31.3 506.3 45.1C251.1 80.7 292.4 462.3 547.6 435.9ZM515.2 73.6C523.7 74.1 523.3 74.1 531.2 76.4C547 88.2 541.7 106.6 541.2 123.4C579.7 133.4 612.8 166.6 597.9 192.6C563.5 214.6 567.5 173.3 545.5 163.8L542.1 164.5C539 178.9 540.9 211.9 541.2 227.8C545.9 229.2 550.8 230.8 555.4 232.3C613.6 252.1 618.6 323.7 582.2 355.5C570.8 365.4 558.9 369.8 541.1 372.8C541 393.6 553.3 416.9 518.1 423.9C491.9 407.9 513 371.7 502.4 372.8C469.9 376.1 411.3 317.3 456.5 297.9C478.9 297.3 479.2 312.3 482 323.7C488.5 329 497.2 334 504.8 338.7L504.5 262.2C485 253.7 471.1 248.2 457.5 232.7C431.2 202.8 433 147.4 481.3 127.3C482.8 126.6 501.5 119.6 501.5 119.6C510.2 99.8 495.4 92.7 515.2 73.6ZM545.6 330.6C552 328.9 551.6 329.1 556.3 325.6C570.5 304 575 283.7 541.4 270.7C540.8 283.2 536 323.1 545.6 330.6ZM496.2 216.2L502.3 217.6C506.9 209.8 507.8 164.5 501.1 158.7C475.4 176.4 475.4 196 496.2 216.2ZM420.1 476.9C396.6 475.2 370.5 476.7 346.7 475.4C357.7 501.6 377.5 534.9 398.2 558.7C420.8 578.9 438.2 586.1 478.4 589.4C521 592.9 586.2 598.5 623.2 581.8C646.1 571.4 702.7 490.2 699.3 476L698.4 475.7C604.2 476.2 514.1 483.3 420.1 476.9Z" fill="#D500F9"/>
</svg>
